{
    "asset" : {
        "generator" : "Khronos glTF Blender I/O v1.8.19",
        "version" : "2.0"
    },
    "scene" : 0,
    "scenes" : [
        {
            "name" : "Scene",
            "nodes" : [
                0
            ]
        }
    ],
    "nodes" : [
        {
            "mesh" : 0,
            "name" : "\u6218\u673a18",
            "scale" : [
                2.9634902477264404,
                2.9634902477264404,
                2.9634902477264404
            ]
        }
    ],
    "materials" : [
        {
            "doubleSided" : true,
            "name" : "Mat3d66-1692937-21-2149",
            "pbrMetallicRoughness" : {
                "baseColorTexture" : {
                    "index" : 0
                },
                "metallicFactor" : 0.34507042169570923,
                "roughnessFactor" : 0.7323943376541138
            }
        }
    ],
    "meshes" : [
        {
            "name" : "Obj3d66-1692937-249-104",
            "primitives" : [
                {
                    "attributes" : {
                        "POSITION" : 0,
                        "NORMAL" : 1,
                        "TEXCOORD_0" : 2
                    },
                    "indices" : 3,
                    "material" : 0
                }
            ]
        }
    ],
    "textures" : [
        {
            "sampler" : 0,
            "source" : 0
        }
    ],
    "images" : [
        {
            "bufferView" : 4,
            "mimeType" : "image/png",
            "name" : "Image_0"
        }
    ],
    "accessors" : [
        {
            "bufferView" : 0,
            "componentType" : 5126,
            "count" : 2882,
            "max" : [
                1.7128608226776123,
                1.3671858310699463,
                2.9161367416381836
            ],
            "min" : [
                -1.7128608226776123,
                2.9802322387695312e-08,
                -2.9161367416381836
            ],
            "type" : "VEC3"
        },
        {
            "bufferView" : 1,
            "componentType" : 5126,
            "count" : 2882,
            "type" : "VEC3"
        },
        {
            "bufferView" : 2,
            "componentType" : 5126,
            "count" : 2882,
            "type" : "VEC2"
        },
        {
            "bufferView" : 3,
            "componentType" : 5123,
            "count" : 5766,
            "type" : "SCALAR"
        }
    ],
    "bufferViews" : [
        {
            "buffer" : 0,
            "byteLength" : 34584,
            "byteOffset" : 0
        },
        {
            "buffer" : 0,
            "byteLength" : 34584,
            "byteOffset" : 34584
        },
        {
            "buffer" : 0,
            "byteLength" : 23056,
            "byteOffset" : 69168
        },
        {
            "buffer" : 0,
            "byteLength" : 11532,
            "byteOffset" : 92224
        },
        {
            "buffer" : 0,
            "byteLength" : 417504,
            "byteOffset" : 103756
        }
    ],
    "samplers" : [
        {
            "magFilter" : 9729,
            "minFilter" : 9987
        }
    ],
    "buffers" : [
        {
            "byteLength" : 521260,
            "uri" : "data:application/octet-stream;base64,"
        }
    ]
}
